<mxfile host="app.diagrams.net" modified="2023-04-14T18:58:34.616Z" agent="Mozilla/5.0 (Macintosh; Intel Mac OS X 10_15_7) AppleWebKit/537.36 (KHTML, like Gecko) Chrome/111.0.0.0 Safari/537.36" etag="-V18FjUIOg7ar5VXoBMX" version="21.1.5" type="github">
  <diagram name="Page-1" id="5f0bae14-7c28-e335-631c-24af17079c00">
    <mxGraphModel dx="2534" dy="1621" grid="1" gridSize="10" guides="1" tooltips="1" connect="1" arrows="1" fold="1" page="1" pageScale="1" pageWidth="1100" pageHeight="850" background="none" math="0" shadow="0">
      <root>
        <mxCell id="0" />
        <mxCell id="1" parent="0" />
        <mxCell id="39150e848f15840c-1" value="React Frontend" style="verticalAlign=top;align=left;spacingTop=8;spacingLeft=2;spacingRight=12;shape=cube;size=10;direction=south;fontStyle=4;html=1;rounded=0;shadow=0;comic=0;labelBackgroundColor=none;strokeWidth=1;fontFamily=Verdana;fontSize=12" parent="1" vertex="1">
          <mxGeometry x="-440" y="-130" width="890" height="470" as="geometry" />
        </mxCell>
        <mxCell id="39150e848f15840c-2" value="Express Backend Server" style="verticalAlign=top;align=left;spacingTop=8;spacingLeft=2;spacingRight=12;shape=cube;size=10;direction=south;fontStyle=4;html=1;rounded=0;shadow=0;comic=0;labelBackgroundColor=none;strokeWidth=1;fontFamily=Verdana;fontSize=12" parent="1" vertex="1">
          <mxGeometry x="610" y="-130" width="430" height="470" as="geometry" />
        </mxCell>
        <mxCell id="39150e848f15840c-3" value="HomelessShelter Database - MongoDB Atlas" style="verticalAlign=top;align=left;spacingTop=8;spacingLeft=2;spacingRight=12;shape=cube;size=10;direction=south;fontStyle=4;html=1;rounded=0;shadow=0;comic=0;labelBackgroundColor=none;strokeWidth=1;fontFamily=Verdana;fontSize=12" parent="1" vertex="1">
          <mxGeometry x="340" y="410" width="390" height="240" as="geometry" />
        </mxCell>
        <mxCell id="39150e848f15840c-5" value="App.js" style="shape=component;align=left;spacingLeft=36;rounded=0;shadow=0;comic=0;labelBackgroundColor=none;strokeWidth=1;fontFamily=Verdana;fontSize=12;html=1;" parent="1" vertex="1">
          <mxGeometry x="250" y="120" width="120" height="60" as="geometry" />
        </mxCell>
        <mxCell id="39150e848f15840c-6" value="" style="ellipse;whiteSpace=wrap;html=1;rounded=0;shadow=0;comic=0;labelBackgroundColor=none;strokeWidth=1;fontFamily=Verdana;fontSize=12;align=center;" parent="1" vertex="1">
          <mxGeometry x="400" y="140" width="20" height="20" as="geometry" />
        </mxCell>
        <mxCell id="39150e848f15840c-10" value="facility &lt;br&gt;Collection" style="shape=component;align=left;spacingLeft=36;rounded=0;shadow=0;comic=0;labelBackgroundColor=none;strokeWidth=1;fontFamily=Verdana;fontSize=12;html=1;" parent="1" vertex="1">
          <mxGeometry x="460" y="450" width="120" height="60" as="geometry" />
        </mxCell>
        <mxCell id="39150e848f15840c-14" style="edgeStyle=elbowEdgeStyle;rounded=0;html=1;labelBackgroundColor=none;startArrow=none;startFill=0;startSize=8;endArrow=none;endFill=0;endSize=16;fontFamily=Verdana;fontSize=12;" parent="1" source="39150e848f15840c-6" target="39150e848f15840c-5" edge="1">
          <mxGeometry relative="1" as="geometry" />
        </mxCell>
        <mxCell id="UZw-BEWrjJsHk9lzwK63-1" value="Shelters.js" style="shape=component;align=left;spacingLeft=36;rounded=0;shadow=0;comic=0;labelBackgroundColor=none;strokeWidth=1;fontFamily=Verdana;fontSize=12;html=1;" parent="1" vertex="1">
          <mxGeometry x="-50" y="120" width="120" height="60" as="geometry" />
        </mxCell>
        <mxCell id="UZw-BEWrjJsHk9lzwK63-2" value="Home.js" style="shape=component;align=left;spacingLeft=36;rounded=0;shadow=0;comic=0;labelBackgroundColor=none;strokeWidth=1;fontFamily=Verdana;fontSize=12;html=1;" parent="1" vertex="1">
          <mxGeometry x="90" y="120" width="120" height="60" as="geometry" />
        </mxCell>
        <mxCell id="UZw-BEWrjJsHk9lzwK63-3" value="Nav.js" style="shape=component;align=left;spacingLeft=36;rounded=0;shadow=0;comic=0;labelBackgroundColor=none;strokeWidth=1;fontFamily=Verdana;fontSize=12;html=1;" parent="1" vertex="1">
          <mxGeometry x="90" y="-60" width="120" height="60" as="geometry" />
        </mxCell>
        <mxCell id="UZw-BEWrjJsHk9lzwK63-5" value="Header.js" style="shape=component;align=left;spacingLeft=36;rounded=0;shadow=0;comic=0;labelBackgroundColor=none;strokeWidth=1;fontFamily=Verdana;fontSize=12;html=1;" parent="1" vertex="1">
          <mxGeometry x="-185" y="190" width="120" height="60" as="geometry" />
        </mxCell>
        <mxCell id="UZw-BEWrjJsHk9lzwK63-6" value="ShelterFilter.js" style="shape=component;align=left;spacingLeft=36;rounded=0;shadow=0;comic=0;labelBackgroundColor=none;strokeWidth=1;fontFamily=Verdana;fontSize=12;html=1;" parent="1" vertex="1">
          <mxGeometry x="-195" y="120" width="130" height="60" as="geometry" />
        </mxCell>
        <mxCell id="UZw-BEWrjJsHk9lzwK63-7" value="ShelterForm.js" style="shape=component;align=left;spacingLeft=36;rounded=0;shadow=0;comic=0;labelBackgroundColor=none;strokeWidth=1;fontFamily=Verdana;fontSize=12;html=1;" parent="1" vertex="1">
          <mxGeometry x="-60" y="-30" width="130" height="60" as="geometry" />
        </mxCell>
        <mxCell id="UZw-BEWrjJsHk9lzwK63-8" value="Details.js" style="shape=component;align=left;spacingLeft=36;rounded=0;shadow=0;comic=0;labelBackgroundColor=none;strokeWidth=1;fontFamily=Verdana;fontSize=12;html=1;" parent="1" vertex="1">
          <mxGeometry x="-185" y="50" width="120" height="60" as="geometry" />
        </mxCell>
        <mxCell id="UZw-BEWrjJsHk9lzwK63-9" value="About.js" style="shape=component;align=left;spacingLeft=36;rounded=0;shadow=0;comic=0;labelBackgroundColor=none;strokeWidth=1;fontFamily=Verdana;fontSize=12;html=1;" parent="1" vertex="1">
          <mxGeometry x="-50" y="-110" width="120" height="60" as="geometry" />
        </mxCell>
        <mxCell id="UZw-BEWrjJsHk9lzwK63-10" value="Map.js" style="shape=component;align=left;spacingLeft=36;rounded=0;shadow=0;comic=0;labelBackgroundColor=none;strokeWidth=1;fontFamily=Verdana;fontSize=12;html=1;" parent="1" vertex="1">
          <mxGeometry x="-360" y="10" width="120" height="60" as="geometry" />
        </mxCell>
        <mxCell id="UZw-BEWrjJsHk9lzwK63-11" value="Comments.js" style="shape=component;align=left;spacingLeft=36;rounded=0;shadow=0;comic=0;labelBackgroundColor=none;strokeWidth=1;fontFamily=Verdana;fontSize=12;html=1;" parent="1" vertex="1">
          <mxGeometry x="-360" y="90" width="120" height="60" as="geometry" />
        </mxCell>
        <mxCell id="UZw-BEWrjJsHk9lzwK63-14" value="commentModel.js" style="shape=component;align=left;spacingLeft=36;rounded=0;shadow=0;comic=0;labelBackgroundColor=none;strokeWidth=1;fontFamily=Verdana;fontSize=12;html=1;" parent="1" vertex="1">
          <mxGeometry x="632.5" y="100" width="150" height="60" as="geometry" />
        </mxCell>
        <mxCell id="UZw-BEWrjJsHk9lzwK63-15" value="facilityModel.js" style="shape=component;align=left;spacingLeft=36;rounded=0;shadow=0;comic=0;labelBackgroundColor=none;strokeWidth=1;fontFamily=Verdana;fontSize=12;html=1;" parent="1" vertex="1">
          <mxGeometry x="637.5" y="180" width="145" height="60" as="geometry" />
        </mxCell>
        <mxCell id="UZw-BEWrjJsHk9lzwK63-17" value="facilityController.js" style="shape=component;align=left;spacingLeft=36;rounded=0;shadow=0;comic=0;labelBackgroundColor=none;strokeWidth=1;fontFamily=Verdana;fontSize=12;html=1;" parent="1" vertex="1">
          <mxGeometry x="832.5" y="100" width="160" height="60" as="geometry" />
        </mxCell>
        <mxCell id="UZw-BEWrjJsHk9lzwK63-18" value="commentController.js" style="shape=component;align=left;spacingLeft=36;rounded=0;shadow=0;comic=0;labelBackgroundColor=none;strokeWidth=1;fontFamily=Verdana;fontSize=12;html=1;" parent="1" vertex="1">
          <mxGeometry x="832.5" y="180" width="180" height="60" as="geometry" />
        </mxCell>
        <mxCell id="4GuFFreWsQoV8ttLWz-7-1" value="" style="endArrow=none;dashed=1;html=1;rounded=0;exitX=1;exitY=0.5;exitDx=0;exitDy=0;entryX=0;entryY=0.3;entryDx=0;entryDy=0;" parent="1" source="UZw-BEWrjJsHk9lzwK63-9" target="UZw-BEWrjJsHk9lzwK63-3" edge="1">
          <mxGeometry width="50" height="50" relative="1" as="geometry">
            <mxPoint x="340" y="250" as="sourcePoint" />
            <mxPoint x="390" y="200" as="targetPoint" />
          </mxGeometry>
        </mxCell>
        <mxCell id="4GuFFreWsQoV8ttLWz-7-2" value="" style="endArrow=none;dashed=1;html=1;rounded=0;exitX=1;exitY=0.5;exitDx=0;exitDy=0;entryX=0;entryY=0.7;entryDx=0;entryDy=0;" parent="1" source="UZw-BEWrjJsHk9lzwK63-7" target="UZw-BEWrjJsHk9lzwK63-3" edge="1">
          <mxGeometry width="50" height="50" relative="1" as="geometry">
            <mxPoint x="110" as="sourcePoint" />
            <mxPoint x="130" y="38" as="targetPoint" />
          </mxGeometry>
        </mxCell>
        <mxCell id="4GuFFreWsQoV8ttLWz-7-3" value="" style="endArrow=none;dashed=1;html=1;rounded=0;exitX=1;exitY=0.5;exitDx=0;exitDy=0;entryX=0;entryY=0.3;entryDx=0;entryDy=0;" parent="1" source="UZw-BEWrjJsHk9lzwK63-10" target="UZw-BEWrjJsHk9lzwK63-8" edge="1">
          <mxGeometry width="50" height="50" relative="1" as="geometry">
            <mxPoint x="120" y="10" as="sourcePoint" />
            <mxPoint x="140" y="48" as="targetPoint" />
          </mxGeometry>
        </mxCell>
        <mxCell id="4GuFFreWsQoV8ttLWz-7-4" value="" style="endArrow=none;dashed=1;html=1;rounded=0;exitX=1;exitY=0.5;exitDx=0;exitDy=0;entryX=0;entryY=0.7;entryDx=0;entryDy=0;" parent="1" source="UZw-BEWrjJsHk9lzwK63-11" target="UZw-BEWrjJsHk9lzwK63-8" edge="1">
          <mxGeometry width="50" height="50" relative="1" as="geometry">
            <mxPoint x="-200" y="120" as="sourcePoint" />
            <mxPoint x="-145" y="148" as="targetPoint" />
          </mxGeometry>
        </mxCell>
        <mxCell id="4GuFFreWsQoV8ttLWz-7-7" value="Server.js" style="shape=component;align=left;spacingLeft=36;rounded=0;shadow=0;comic=0;labelBackgroundColor=none;strokeWidth=1;fontFamily=Verdana;fontSize=12;html=1;" parent="1" vertex="1">
          <mxGeometry x="627.5" y="-70" width="145" height="60" as="geometry" />
        </mxCell>
        <mxCell id="4GuFFreWsQoV8ttLWz-7-8" value="commentRouter.js" style="shape=component;align=left;spacingLeft=36;rounded=0;shadow=0;comic=0;labelBackgroundColor=none;strokeWidth=1;fontFamily=Verdana;fontSize=12;html=1;" parent="1" vertex="1">
          <mxGeometry x="832.5" y="20" width="150" height="60" as="geometry" />
        </mxCell>
        <mxCell id="4GuFFreWsQoV8ttLWz-7-9" value="facilityRouter.js" style="shape=component;align=left;spacingLeft=36;rounded=0;shadow=0;comic=0;labelBackgroundColor=none;strokeWidth=1;fontFamily=Verdana;fontSize=12;html=1;" parent="1" vertex="1">
          <mxGeometry x="627.5" y="20" width="160" height="60" as="geometry" />
        </mxCell>
        <mxCell id="4GuFFreWsQoV8ttLWz-7-10" value="db.js" style="shape=component;align=left;spacingLeft=36;rounded=0;shadow=0;comic=0;labelBackgroundColor=none;strokeWidth=1;fontFamily=Verdana;fontSize=12;html=1;" parent="1" vertex="1">
          <mxGeometry x="637.5" y="260" width="145" height="60" as="geometry" />
        </mxCell>
        <mxCell id="4GuFFreWsQoV8ttLWz-7-13" value="comment&lt;br&gt;Collection" style="shape=component;align=left;spacingLeft=36;rounded=0;shadow=0;comic=0;labelBackgroundColor=none;strokeWidth=1;fontFamily=Verdana;fontSize=12;html=1;" parent="1" vertex="1">
          <mxGeometry x="460" y="530" width="120" height="60" as="geometry" />
        </mxCell>
        <mxCell id="4GuFFreWsQoV8ttLWz-7-15" value="" style="endArrow=classic;startArrow=classic;html=1;rounded=0;entryX=0;entryY=0.3;entryDx=0;entryDy=0;exitX=1;exitY=0;exitDx=0;exitDy=0;targetPerimeterSpacing=0;" parent="1" source="39150e848f15840c-6" target="4GuFFreWsQoV8ttLWz-7-7" edge="1">
          <mxGeometry width="50" height="50" relative="1" as="geometry">
            <mxPoint x="430" y="130" as="sourcePoint" />
            <mxPoint x="460" y="100" as="targetPoint" />
          </mxGeometry>
        </mxCell>
        <mxCell id="7146y2hZaAMEMbBTrkRV-2" value="NotFound.js" style="shape=component;align=left;spacingLeft=36;rounded=0;shadow=0;comic=0;labelBackgroundColor=none;strokeWidth=1;fontFamily=Verdana;fontSize=12;html=1;" vertex="1" parent="1">
          <mxGeometry x="90" y="240" width="120" height="60" as="geometry" />
        </mxCell>
        <mxCell id="7146y2hZaAMEMbBTrkRV-6" value="" style="endArrow=classic;startArrow=classic;html=1;rounded=0;entryX=0;entryY=0.7;entryDx=0;entryDy=0;exitX=0;exitY=0;exitDx=0;exitDy=190;targetPerimeterSpacing=0;exitPerimeter=0;" edge="1" parent="1" source="39150e848f15840c-3" target="4GuFFreWsQoV8ttLWz-7-10">
          <mxGeometry width="50" height="50" relative="1" as="geometry">
            <mxPoint x="427" y="153" as="sourcePoint" />
            <mxPoint x="638" y="-42" as="targetPoint" />
          </mxGeometry>
        </mxCell>
      </root>
    </mxGraphModel>
  </diagram>
</mxfile>
